<svg xmlns="http://www.w3.org/2000/svg" width="34.7mm" height="34.7mm" viewBox="0 0 34.7 34.7"><path fill="transparent" d="M0 .005h34.7v34.7H0z"/><g fill="rgb(107, 103, 103)"><path d="m20.898.554 3.878 2.23-15.271 8.782-3.878-2.23zM24.932 3.252 9.757 11.975v4.413l15.175-8.723zM18.83 11.865 9.789 17.06v4.414l9.04-5.197zM15.364 18.842l-5.596 3.216v4.414l5.596-3.217zM5.351 9.761l3.901 2.242-.002 4.414-3.9-2.242zM5.388 14.817l3.854 2.215-.002 4.414-3.853-2.214zM5.387 19.843 9.24 22.06l-.001 4.705-3.855-2.215zM13.976 34.155l-3.878-2.23 15.098-8.682 3.878 2.23zM9.79 31.544l15.153-8.71v-4.413l-15.152 8.71zM15.87 22.944l9.041-5.196v-4.414l-9.04 5.197zM19.336 15.967l5.596-3.217V8.337l-5.595 3.217zM29.35 25.077l-3.901-2.242.001-4.414 3.9 2.242zM29.313 19.993l-3.854-2.215.002-4.414 3.853 2.215zM29.314 14.967 25.46 12.75l.001-4.62 3.855 2.215z"/></g></svg>